<svg version="1.2" xmlns="http://www.w3.org/2000/svg" viewBox="0 0 500 500" width="96" height="96">
	<style>
		.s0 { fill: #000000 } 
	</style>
	<path id="Path 0" fill-rule="evenodd" class="s0" d="m223.5 3.96l-0.93 4.27c-0.51 2.35-1.01 8.99-1.1 14.77-0.1 5.78 0.37 13.42 1.05 17 0.68 3.58 2.69 9.88 4.47 14 1.78 4.13 4.42 9.01 5.87 10.85 1.45 1.84 3.2 4.43 3.89 5.75 0.69 1.32 3.39 3.96 6 5.88 2.61 1.91 6.66 4.38 9 5.5 3.74 1.78 4.2 2.35 3.8 4.77-0.25 1.51-0.7 9.72-1.01 18.25-0.49 13.63-0.31 16.47 1.53 23.5 1.14 4.4 3.78 11.6 5.85 16 2.08 4.4 5.81 10.7 8.3 14 2.49 3.3 7.89 9.15 12.01 13 4.12 3.85 11.26 9.24 15.88 11.97 4.61 2.74 13.34 6.66 19.39 8.71 6.05 2.05 15.05 4.26 20 4.9 5.32 0.7 13.2 0.93 19.25 0.55 7.83-0.48 10.96-1.1 13.25-2.63 1.65-1.1 3.56-1.99 4.25-1.98 0.69 0.01 4.18-0.9 7.75-2.02 3.57-1.12 7.29-2.03 8.25-2.02 1.08 0.01 2.62 1.79 4 4.61 1.24 2.52 5.18 7.66 8.75 11.43 3.96 4.17 9.04 8.22 13 10.38 3.57 1.94 9.87 4.72 14 6.18 5.58 1.97 10.19 2.78 18 3.17 5.77 0.28 13.76 0 17.75-0.62 3.99-0.62 7.48-1.58 7.75-2.13 0.27-0.55 2.41-0.99 4.75-0.98 2.63 0.02 6.16-0.95 9.25-2.53 2.75-1.4 5.03-2.43 5.07-2.27 0.04 0.15 0.65 2.75 1.35 5.78 0.7 3.03 1.51 11.8 1.8 19.5 0.36 9.76 0.01 18.54-1.18 29-0.94 8.25-2.81 20.63-4.16 27.5-1.35 6.87-3.61 16.32-5.02 21-1.41 4.68-4.27 13-6.36 18.5-2.09 5.5-6.24 14.95-9.22 21-2.99 6.05-8.07 15.27-11.28 20.5-3.22 5.23-9.13 13.77-13.14 19-4.01 5.23-10.56 13.16-14.57 17.63-4.01 4.47-11.11 11.58-15.79 15.79-4.68 4.22-12.77 10.93-18 14.92-5.23 3.99-14 9.98-19.5 13.32-5.5 3.34-14.5 8.33-20 11.09-5.5 2.76-14.5 6.71-20 8.78-5.5 2.06-14.05 5.01-19 6.55-4.95 1.54-13.5 3.69-19 4.79-5.5 1.09-14.05 2.49-19 3.11-4.95 0.62-11.48 1.55-14.5 2.08-3.02 0.53-10.68 0.96-17 0.96-6.32 0-13.97-0.43-17-0.96-3.03-0.53-9.55-1.46-14.5-2.08-4.95-0.62-13.5-2.02-19-3.11-5.5-1.1-14.05-3.25-19-4.79-4.95-1.54-13.5-4.49-19-6.55-5.5-2.07-14.5-6.02-20-8.78-5.5-2.76-14.5-7.75-20-11.09-5.5-3.34-14.28-9.33-19.5-13.32-5.22-3.99-13.33-10.7-18-14.92-4.67-4.21-11.78-11.32-15.79-15.79-4.01-4.47-10.56-12.4-14.57-17.63-4.01-5.23-9.92-13.77-13.14-19-3.21-5.23-8.29-14.45-11.28-20.5-2.98-6.05-7.13-15.5-9.22-21-2.09-5.5-4.95-13.82-6.36-18.5-1.41-4.68-3.68-14.13-5.03-21-1.35-6.88-2.99-16.77-3.63-22-0.64-5.23-1.4-14.9-1.69-21.5-0.37-8.21 0.01-16.58 1.2-26.5 0.95-7.97 3.01-20.8 4.58-28.5 1.57-7.7 4.94-20.07 7.47-27.5 2.54-7.43 7.35-19.35 10.69-26.5 3.34-7.15 8.98-17.72 12.54-23.5 3.55-5.78 10.35-15.63 15.09-21.91 4.75-6.27 14.27-17.07 21.16-24 6.89-6.92 17.69-16.48 24-21.24 6.31-4.75 15.98-11.44 21.48-14.86 5.5-3.42 15.18-8.71 21.5-11.75 6.32-3.03 17.57-7.71 25-10.38 7.43-2.68 18-5.81 23.5-6.96 5.5-1.16 11.35-2.75 13-3.55 1.65-0.8 5.47-1.83 8.5-2.28 3.03-0.45 6.85-0.88 11.5-1.11zm-68.5 45.05c-6.32 3.01-15.55 7.92-20.5 10.9-4.95 2.97-13.05 8.42-18 12.11-4.95 3.68-12.6 9.98-17 13.99-4.4 4.01-11.1 10.71-14.89 14.89-3.79 4.18-9.9 11.65-13.58 16.6-3.68 4.95-8.87 12.6-11.53 17-2.67 4.4-7.06 12.5-9.77 18-2.7 5.5-6.39 13.82-8.19 18.5-1.81 4.68-4.7 13.45-6.43 19.5-1.74 6.05-3.8 14.82-4.59 19.5-0.8 4.68-1.91 13.22-2.49 19-0.57 5.78-1.04 15.45-1.04 21.5 0.01 6.05 0.67 16.63 1.48 23.5 0.8 6.88 2.19 16.32 3.07 21 0.89 4.68 3.85 15.25 6.59 23.5 2.74 8.25 7.34 19.95 10.23 26 2.89 6.05 7.86 15.27 11.06 20.5 3.19 5.23 8.98 13.77 12.88 19 3.89 5.23 12.95 15.36 20.14 22.51 7.18 7.16 17.34 16.22 22.56 20.14 5.22 3.92 13.78 9.71 19 12.86 5.22 3.15 13.1 7.55 17.5 9.76 4.4 2.21 13.18 5.93 19.5 8.27 6.32 2.33 15.78 5.42 21 6.85 5.22 1.43 13.32 3.28 18 4.1 4.68 0.82 15.25 2.04 23.5 2.69 11.62 0.92 18.5 0.92 30.5 0 8.52-0.65 19.32-1.87 24-2.69 4.68-0.82 12.77-2.67 18-4.1 5.23-1.43 14.68-4.52 21-6.85 6.32-2.34 15.1-6.06 19.5-8.27 4.4-2.21 12.27-6.61 17.5-9.76 5.23-3.15 13.77-8.94 18.99-12.87 5.22-3.93 15.38-12.99 22.57-20.14 7.2-7.15 16.26-17.27 20.15-22.5 3.89-5.23 9.68-13.77 12.87-19 3.2-5.23 8.17-14.45 11.06-20.5 2.89-6.05 7.49-17.75 10.23-26 2.74-8.25 5.7-18.82 6.59-23.5 0.88-4.68 2.27-14.13 3.07-21 0.81-6.88 1.47-15.43 1.47-19l-0.01-6.5c-24.4 0.63-30.93 0.28-36.99-0.85-4.68-0.87-12.1-3.03-16.5-4.79-4.4-1.76-11.07-5.03-14.82-7.28-3.75-2.24-9.94-6.89-13.75-10.33l-6.93-6.25c-19.36 2.78-26.27 3.07-36 2.67-7.43-0.31-16.87-1.28-21-2.16-4.12-0.89-10.87-2.7-15-4.04-4.12-1.33-11.77-4.6-17-7.26-5.23-2.66-12.2-6.8-15.5-9.2-3.3-2.4-8.42-6.42-11.39-8.94-2.96-2.51-8.27-8.17-11.79-12.57-3.53-4.4-8.35-11.38-10.72-15.5-2.37-4.13-5.69-11.1-7.37-15.5-1.68-4.4-3.8-11.82-4.7-16.5-1.03-5.37-1.62-13.38-1.58-21.75l0.05-13.25c-6.5-5.04-11.06-9.88-14.32-14-3.25-4.13-7.85-11.55-10.22-16.5-2.36-4.95-5.24-12.83-6.38-17.5-1.15-4.67-2.09-9.51-2.09-10.75 0.01-1.24-0.55-2.23-1.24-2.2-0.69 0.02-7.55 2.16-15.25 4.75-7.7 2.6-19.18 7.19-25.5 10.21zm156-13.03c1.38 0 4.52 1.02 6.99 2.26 2.47 1.24 5.52 3.83 6.78 5.76 1.26 1.92 2.56 5.08 2.88 7 0.33 1.92 0.03 5.3-0.66 7.5-0.68 2.2-2.65 5.41-4.37 7.13-1.71 1.72-4.92 3.61-7.12 4.21-2.29 0.62-5.5 0.75-7.5 0.32-1.93-0.42-4.85-1.69-6.5-2.82-1.65-1.12-3.79-3.69-4.75-5.69-0.96-2.01-1.76-6.01-1.78-8.9-0.02-3.82 0.6-6.21 2.26-8.75 1.26-1.92 4.31-4.52 6.78-5.76 2.47-1.24 5.62-2.26 6.99-2.26zm138.25 12.04c2.61-0.01 6.39 0.77 8.4 1.73 2.01 0.96 5.09 3.33 6.83 5.25 1.98 2.18 3.6 5.39 4.29 8.5 0.77 3.46 0.81 6.38 0.12 9.5-0.55 2.47-1.74 5.62-2.64 7-0.9 1.37-2.56 3.31-3.69 4.3-1.13 1-3.52 2.46-5.31 3.25-1.79 0.8-5.27 1.45-7.75 1.45-2.48 0-5.96-0.65-7.75-1.45-1.79-0.79-4.18-2.25-5.31-3.25-1.13-0.99-2.79-2.93-3.69-4.3-0.9-1.38-2.09-4.53-2.64-7-0.69-3.12-0.65-6.04 0.12-9.5 0.69-3.12 2.31-6.32 4.29-8.5 1.75-1.92 4.71-4.28 6.58-5.23 1.87-0.95 5.54-1.73 8.15-1.75zm-77 50.98c2.06 0 4.99 0.48 6.5 1.06 1.51 0.59 4.02 2.28 5.58 3.75 1.56 1.48 3.48 4.27 4.28 6.19 0.79 1.92 1.43 6.09 1.41 9.25-0.01 3.16-0.62 7.21-1.36 9-0.74 1.79-2.99 4.71-5 6.5-2.01 1.79-4.9 3.54-6.41 3.89-1.51 0.35-4.55 0.43-6.75 0.18-2.2-0.24-5.55-1.54-7.44-2.88-1.98-1.4-4.42-4.57-5.74-7.44-1.26-2.75-2.3-6.91-2.31-9.25-0.01-2.34 1-6.59 2.24-9.45 1.71-3.94 3.34-5.88 6.75-8 2.84-1.77 5.87-2.8 8.25-2.8zm-259.6 35.02c2.12 0.01 11.72 2.54 21.35 5.62 9.62 3.08 19.07 6.39 21 7.36 1.93 0.97 4.18 3.01 5 4.53 0.82 1.53 1.47 3.94 1.44 5.37-0.03 1.43-0.7 4.12-1.5 5.99-0.79 1.86-2.68 4-4.19 4.75-1.51 0.75-4.32 1.36-6.25 1.36-1.93 0-12.16-2.8-22.75-6.22-14.74-4.76-19.89-6.87-22-9-2.32-2.34-2.73-3.58-2.65-7.88 0.09-4.35 0.59-5.6 3.4-8.5 2.64-2.72 4.07-3.4 7.15-3.38zm-22 120.98c3.4 0 5.06 0.64 7.6 2.92 3.02 2.72 3.3 3.5 3.92 11.25 0.37 4.58 0.71 12.72 0.83 27.83l-3.4 3.5c-2.91 3-4.06 3.5-8 3.5-3.44 0-5.36-0.63-7.6-2.5-1.74-1.45-3.38-4.08-3.91-6.25-0.5-2.06-1.21-9.38-1.59-16.25-0.52-9.7-0.36-13.28 0.73-16 0.78-1.93 2.69-4.51 4.25-5.75 1.95-1.55 4.17-2.25 7.17-2.25zm135.75 0c3.92 0 5.11 0.51 8.1 3.5 2.9 2.9 3.5 4.23 3.5 7.75 0 2.34-1.61 10.1-3.57 17.25-1.97 7.15-4.27 15.48-5.13 18.5-0.89 3.17-2.74 6.66-4.35 8.25-2.31 2.27-3.68 2.75-7.87 2.75-4.18 0-5.59-0.49-7.97-2.75-1.58-1.51-3.23-4.1-3.66-5.75-0.56-2.18 0.25-6.97 2.96-17.5 2.05-7.98 4.44-16.98 5.31-20 0.98-3.44 2.79-6.72 4.83-8.75 2.72-2.72 3.99-3.25 7.85-3.25zm162.35 30.03c1.79-0.02 4.58 0.76 6.21 1.72 1.64 0.96 3.66 2.99 4.5 4.5 0.85 1.51 1.54 4.32 1.54 6.25 0 2.57-0.86 4.42-3.25 6.96-2.25 2.4-8.32 5.82-19.75 11.15-13.95 6.5-17.04 7.59-20 7.07-2.22-0.39-4.69-1.91-6.75-4.15-2.37-2.58-3.25-4.47-3.25-7.03 0-1.93 0.79-4.91 1.75-6.62 1.42-2.53 4.98-4.71 18.75-11.47 10.46-5.14 18.25-8.36 20.25-8.38zm-127.25 99.11c14.57-0.13 18.43 0.13 20.25 1.35 1.24 0.83 2.93 2.86 3.75 4.51 0.82 1.65 1.5 4.57 1.5 6.5 0 2.41-0.86 4.46-2.75 6.56-1.51 1.69-4.1 3.46-5.75 3.93-1.65 0.47-12 1.18-23 1.56-18.36 0.64-20.32 0.55-23.89-1.17-2.14-1.04-4.5-3.12-5.25-4.63-0.75-1.51-1.36-4.1-1.36-5.75 0-1.65 0.68-4.35 1.5-6 0.82-1.65 2.51-3.55 3.75-4.22 1.24-0.67 4.72-1.5 7.75-1.85 3.03-0.35 13.6-0.71 23.5-0.79z"/>
</svg>